<?xml version="1.0" encoding="UTF-8" standalone="no"?>
<svg width="125px" height="55px" viewBox="0 0 125 55" version="1.1" xmlns="http://www.w3.org/2000/svg" xmlns:xlink="http://www.w3.org/1999/xlink">
    <!-- Generator: Sketch 43.2 (39069) - http://www.bohemiancoding.com/sketch -->
    <title>iEdu logo</title>
    <desc>Created with Sketch.</desc>
    <defs></defs>
    <g id="Page-1" stroke="none" stroke-width="1" fill="none" fill-rule="evenodd">
        <g id="GLB-new-web-Layout-Assets" transform="translate(-218.000000, -32.000000)" fill-rule="nonzero" fill="#38B6A0">
            <g id="Top-navigation-Copy" transform="translate(0.000000, -1.000000)">
                <g id="iEdu-logo" transform="translate(218.000000, 33.000000)">
                    <path d="M119.2041,16.8465925 C118.558155,17.4886768 118.219474,18.3192037 118.219474,19.241171 L118.219474,40.0168033 C118.176471,41.0173068 117.94385,41.9755386 117.53164,42.8619087 C117.115642,43.7600703 116.562389,44.5445433 115.888815,45.1948595 C115.212567,45.847178 114.404189,46.3782436 113.483957,46.7709251 C111.665553,47.5516159 109.416667,47.5500585 107.551471,46.7680328 C106.61074,46.3771311 105.784537,45.8255972 105.089127,45.1305621 C104.388369,44.4339696 103.823529,43.6003279 103.40508,42.655 C102.994652,41.7292506 102.787433,40.7307494 102.787433,39.6919789 L102.787433,19.241171 C102.787433,18.3192037 102.445633,17.4909016 101.800357,16.8465925 C100.511809,15.5577518 98.2932264,15.5577518 97.0033422,16.8465925 C96.358066,17.4909016 96.0184938,18.3192037 96.0184938,19.241171 L96.0184938,39.6919789 C96.0184938,41.6680679 96.3990642,43.5665105 97.1501783,45.3330211 C97.8990642,47.0944145 98.9438503,48.6522365 100.254234,49.9593208 C101.566399,51.2690749 103.126337,52.313185 104.891488,53.0605035 C108.283645,54.4999649 112.349153,54.56226 115.720365,53.2195785 C116.66377,52.8418033 117.551248,52.3834895 118.375668,51.8537588 C118.533645,52.3581265 118.812611,52.8173302 119.204323,53.2044496 C119.848485,53.8516511 120.677585,54.1904918 121.602273,54.1904918 C122.527406,54.1904918 123.356283,53.8518735 123.999777,53.2044496 C124.646836,52.5619204 124.987299,51.7345082 124.987299,50.8105386 L124.987299,19.2409485 C124.987299,18.3189813 124.647059,17.4906792 123.999777,16.84637 C122.712344,15.5599766 120.491756,15.5599766 119.2041,16.8465925 Z" id="Shape"></path>
                    <g id="Group" transform="translate(15.283507, 12.236534)">
                        <path d="M1.25534759,1.08081967 C0.55815508,1.77451991 0.191176471,2.66734192 0.191176471,3.66651054 L0.191176471,37.8113349 C0.191176471,38.8087237 0.55815508,39.7022131 1.25311943,40.3954684 C1.94942068,41.0925059 2.84491979,41.4580445 3.84180036,41.4580445 C4.84024064,41.4580445 5.7364082,41.0922834 6.42914439,40.3965808 C7.12678253,39.7019906 7.49286988,38.8085012 7.49286988,37.8111124 L7.49286988,3.66651054 C7.49286988,2.66734192 7.12655971,1.77451991 6.43048128,1.08081967 C5.04122103,-0.309028103 2.64171123,-0.305690867 1.25534759,1.08081967 Z" id="Shape"></path>
                        <path d="M30.3357843,1.06680328 C29.64082,0.370433255 28.7466578,0.00400468384 27.7462121,0.00400468384 L3.84358289,0.00400468384 C2.84447415,0.00400468384 1.94964349,0.370433255 1.25534759,1.06457845 C0.557040998,1.75983607 0.191176471,2.65399297 0.191176471,3.64915691 C0.191176471,4.6461007 0.557263815,5.54092506 1.25423351,6.23262295 C1.94986631,6.92921546 2.84469697,7.2947541 3.8438057,7.2947541 L27.7462121,7.2947541 C28.7466578,7.2947541 29.64082,6.92899297 30.3357843,6.23418033 C31.7274955,4.84677986 31.7241533,2.45108899 30.3357843,1.06680328 Z" id="Shape"></path>
                        <path d="M30.3357843,35.3780445 C29.64082,34.6821194 28.7466578,34.3152459 27.7462121,34.3152459 L3.84358289,34.3152459 C2.84447415,34.3152459 1.94964349,34.6821194 1.25534759,35.3755972 C0.557040998,36.0712998 0.191176471,36.9650117 0.191176471,37.9608431 C0.191176471,38.9573419 0.557263815,39.8521663 1.25423351,40.5436417 C1.94986631,41.2409016 2.84469697,41.6059953 3.8438057,41.6059953 L27.7462121,41.6059953 C28.7466578,41.6059953 29.64082,41.2406792 30.3357843,40.545644 C31.7274955,39.1580211 31.7241533,36.7618852 30.3357843,35.3780445 Z" id="Shape"></path>
                        <path d="M25.1889483,17.6826815 C24.493984,16.9867564 23.5998217,16.6201054 22.5993761,16.6201054 L3.84358289,16.6201054 C2.84447415,16.6201054 1.94964349,16.9867564 1.25534759,17.6806792 C0.557040998,18.3759368 0.191176471,19.2700937 0.191176471,20.2654801 C0.191176471,21.2622014 0.557263815,22.1572482 1.25423351,22.8487237 C1.94986631,23.5455386 2.84469697,23.9110773 3.8438057,23.9110773 L22.5995989,23.9110773 C23.6000446,23.9110773 24.4942068,23.5453162 25.1891711,22.850281 C26.5806595,21.463103 26.5777629,19.0671897 25.1889483,17.6826815 Z" id="Shape"></path>
                    </g>
                    <g id="Group-2">
                        <path d="M2.06038324,13.5398361 C1.36319073,14.2335363 0.996212121,15.1263583 0.996212121,16.1255269 L0.996212121,50.2703513 C0.996212121,51.26774 1.36319073,52.1612295 2.05815508,52.8544848 C2.75445633,53.5515222 3.64995544,53.9170609 4.64683601,53.9170609 C5.64527629,53.9170609 6.54144385,53.5512998 7.23418004,52.8555972 C7.93181818,52.161007 8.29790553,51.2675176 8.29790553,50.2701288 L8.29790553,16.1255269 C8.29790553,15.1263583 7.93159537,14.2335363 7.23551693,13.5398361 C5.84625668,12.1499883 3.44652406,12.1533255 2.06038324,13.5398361 Z" id="Shape"></path>
                        <path d="M4.64661319,0.157517564 C3.42067736,0.157517564 2.36163102,0.596252927 1.4959893,1.45903981 C0.631238859,2.32293911 0.189171123,3.38173302 0.189171123,4.60827869 C0.189171123,5.83371194 0.631238859,6.8931733 1.49353832,7.75551522 C2.36163102,8.62074941 3.42045455,9.0592623 4.64639037,9.0592623 C5.87477718,9.0592623 6.9347148,8.62052693 7.79924242,7.75551522 C8.66555258,6.89005855 9.10405526,5.83215457 9.10405526,4.60827869 C9.10405526,3.38306792 8.66532977,2.32382904 7.79924242,1.45903981 C6.93493761,0.596252927 5.875,0.157517564 4.64661319,0.157517564 Z" id="Shape"></path>
                    </g>
                    <path d="M84.2719347,6.67435765 C83.6481983,7.29909799 83.3189622,8.10027361 83.3189622,8.99279057 L83.3189622,22.0839011 C82.0691162,20.9897438 80.674717,19.9994227 79.1482781,19.1200468 C76.7929236,17.7658683 74.1480312,17.0282438 71.2526518,16.9239768 C68.8008566,16.9239768 66.4303995,17.4295856 64.2062217,18.4239999 C62.004482,19.4091508 60.0387739,20.7564356 58.3638983,22.4277237 C56.6866495,24.1020278 55.3377738,26.0787924 54.3476921,28.3050222 C53.3532954,30.549348 52.8486536,32.9754948 52.8486536,35.5156028 C52.8486536,38.0093939 53.3407818,40.3974099 54.3101514,42.6132993 C55.2724012,44.8143241 56.5984073,46.7803173 58.247177,48.4522517 C59.901772,50.1315106 61.8750313,51.4712555 64.1119385,52.4357253 C66.3535921,53.4014877 68.8040928,53.8900777 71.3956948,53.8900777 C73.8826574,53.8900777 76.2792203,53.4277699 78.5176377,52.5143564 C80.28205,51.792889 81.8900428,50.8402677 83.3191779,49.6676948 L83.3191779,50.6916226 C83.3191779,51.5845705 83.648414,52.3883312 84.2732292,53.011779 C84.8971813,53.6347959 85.70258,53.9628923 86.5947107,53.9628923 C87.4913722,53.9628923 88.2939662,53.6347959 88.9194286,53.010271 C89.5425177,52.3883312 89.8704593,51.5862939 89.8704593,50.6916226 L89.8704593,8.99279057 C89.8704593,8.0994119 89.5423019,7.29758999 88.9174868,6.67435765 C87.6672093,5.4296164 85.5230751,5.42767755 84.2719347,6.67435765 Z M83.3189622,35.5153874 C83.3189622,37.1485448 83.0065546,38.7009168 82.3918798,40.1298487 C81.7685749,41.5708446 80.9040604,42.8489772 79.8216372,43.9280545 C78.7383511,45.009717 77.4561424,45.8748747 76.0198875,46.4912133 C73.1547133,47.7253986 69.643796,47.7253986 66.734177,46.4899208 C65.2698745,45.870997 63.9794673,45.008209 62.9002804,43.9278391 C61.8135423,42.8470383 60.9511852,41.5680441 60.3300379,40.1296333 C59.7142843,38.7041482 59.4014453,37.1509145 59.4014453,35.515172 C59.4014453,33.879214 59.7142843,32.3113312 60.3341371,30.8587022 C60.9516167,29.3996104 61.815484,28.1137224 62.9002804,27.0296903 C63.9794673,25.9508283 65.2696587,25.0897638 66.734177,24.469332 C68.1898495,23.85127 69.7603016,23.5395461 71.395479,23.5395461 C72.9857802,23.5395461 74.508767,23.8400677 75.9158955,24.4333556 C77.3299281,25.0283669 78.5823631,25.8650881 79.6423481,26.921761 C80.7027646,27.9814498 81.5664162,29.260875 82.2121591,30.726645 C82.8574706,32.1954311 83.229857,33.8238491 83.3189622,35.5153874 Z" id="Shape"></path>
                </g>
            </g>
        </g>
    </g>
</svg>